<svg width="32" height="32" viewBox="0 0 32 32" fill="none" xmlns="http://www.w3.org/2000/svg">
<path d="M12.8919 3.56777C11.2433 3.56777 9.66223 4.22268 8.49649 5.38843C7.33074 6.55418 6.67583 8.13527 6.67583 9.78389C6.67583 11.4325 7.33074 13.0136 8.49649 14.1793C9.66223 15.3451 11.2433 16 12.8919 16C14.5406 16 16.1217 15.3451 17.2874 14.1793C18.4531 13.0136 19.1081 11.4325 19.1081 9.78389C19.1081 8.13527 18.4531 6.55418 17.2874 5.38843C16.1217 4.22268 14.5406 3.56777 12.8919 3.56777ZM3.56777 9.78389C3.56777 7.31096 4.55014 4.93932 6.29876 3.1907C8.04738 1.44208 10.419 0.459717 12.8919 0.459717C15.3649 0.459717 17.7365 1.44208 19.4851 3.1907C21.2337 4.93932 22.2161 7.31096 22.2161 9.78389C22.2161 12.2568 21.2337 14.6284 19.4851 16.3771C17.7365 18.1257 15.3649 19.1081 12.8919 19.1081C10.419 19.1081 8.04738 18.1257 6.29876 16.3771C4.55014 14.6284 3.56777 12.2568 3.56777 9.78389ZM26.8782 14.446C27.2903 14.446 27.6856 14.6097 27.9771 14.9011C28.2685 15.1926 28.4322 15.5878 28.4322 16V17.554H29.9863C30.3984 17.554 30.7937 17.7178 31.0851 18.0092C31.3766 18.3006 31.5403 18.6959 31.5403 19.1081C31.5403 19.5202 31.3766 19.9155 31.0851 20.2069C30.7937 20.4984 30.3984 20.6621 29.9863 20.6621H28.4322V22.2161C28.4322 22.6283 28.2685 23.0235 27.9771 23.315C27.6856 23.6064 27.2903 23.7701 26.8782 23.7701C26.466 23.7701 26.0708 23.6064 25.7793 23.315C25.4879 23.0235 25.3242 22.6283 25.3242 22.2161V20.6621H23.7701C23.358 20.6621 22.9627 20.4984 22.6713 20.2069C22.3798 19.9155 22.2161 19.5202 22.2161 19.1081C22.2161 18.6959 22.3798 18.3006 22.6713 18.0092C22.9627 17.7178 23.358 17.554 23.7701 17.554H25.3242V16C25.3242 15.5878 25.4879 15.1926 25.7793 14.9011C26.0708 14.6097 26.466 14.446 26.8782 14.446ZM7.45284 25.3242C5.49477 25.3242 3.56777 27.2092 3.56777 29.9863C3.56777 30.3984 3.40405 30.7937 3.11261 31.0851C2.82117 31.3766 2.4259 31.5403 2.01375 31.5403C1.60159 31.5403 1.20632 31.3766 0.914881 31.0851C0.623444 30.7937 0.459717 30.3984 0.459717 29.9863C0.459717 25.8961 3.40149 22.2161 7.45284 22.2161H18.331C22.3824 22.2161 25.3242 25.8961 25.3242 29.9863C25.3242 30.3984 25.1604 30.7937 24.869 31.0851C24.5776 31.3766 24.1823 31.5403 23.7701 31.5403C23.358 31.5403 22.9627 31.3766 22.6713 31.0851C22.3798 30.7937 22.2161 30.3984 22.2161 29.9863C22.2161 27.2092 20.2891 25.3242 18.331 25.3242H7.45284Z" fill="#163440"/>
</svg>
