<svg width="26" height="26" viewBox="0 0 26 26" fill="none" xmlns="http://www.w3.org/2000/svg">
<path d="M6.62498 2.80005C6.62498 2.12375 6.89364 1.47515 7.37186 0.996937C7.85008 0.51872 8.49868 0.250061 9.17498 0.250061H16.825C17.5013 0.250061 18.1499 0.51872 18.6281 0.996937C19.1063 1.47515 19.375 2.12375 19.375 2.80005V5.35005H24.4749C24.8131 5.35005 25.1374 5.48438 25.3765 5.72349C25.6156 5.96259 25.7499 6.2869 25.7499 6.62505C25.7499 6.9632 25.6156 7.2875 25.3765 7.5266C25.1374 7.76571 24.8131 7.90004 24.4749 7.90004H23.112L22.0065 23.3811C21.9608 24.0244 21.6729 24.6265 21.2009 25.0661C20.7289 25.5056 20.1079 25.75 19.4629 25.75H6.53573C5.89076 25.75 5.26975 25.5056 4.79777 25.0661C4.32579 24.6265 4.03791 24.0244 3.99212 23.3811L2.88924 7.90004H1.525C1.18685 7.90004 0.862546 7.76571 0.623438 7.5266C0.38433 7.2875 0.25 6.9632 0.25 6.62505C0.25 6.2869 0.38433 5.96259 0.623438 5.72349C0.862546 5.48438 1.18685 5.35005 1.525 5.35005H6.62498V2.80005ZM9.17498 5.35005H16.825V2.80005H9.17498V5.35005ZM5.44434 7.90004L6.53701 23.2H19.4642L20.5569 7.90004H5.44434ZM10.45 10.45C10.7881 10.45 11.1124 10.5844 11.3515 10.8235C11.5906 11.0626 11.725 11.3869 11.725 11.725V19.375C11.725 19.7132 11.5906 20.0375 11.3515 20.2766C11.1124 20.5157 10.7881 20.65 10.45 20.65C10.1118 20.65 9.78752 20.5157 9.54842 20.2766C9.30931 20.0375 9.17498 19.7132 9.17498 19.375V11.725C9.17498 11.3869 9.30931 11.0626 9.54842 10.8235C9.78752 10.5844 10.1118 10.45 10.45 10.45ZM15.55 10.45C15.8881 10.45 16.2124 10.5844 16.4515 10.8235C16.6906 11.0626 16.825 11.3869 16.825 11.725V19.375C16.825 19.7132 16.6906 20.0375 16.4515 20.2766C16.2124 20.5157 15.8881 20.65 15.55 20.65C15.2118 20.65 14.8875 20.5157 14.6484 20.2766C14.4093 20.0375 14.275 19.7132 14.275 19.375V11.725C14.275 11.3869 14.4093 11.0626 14.6484 10.8235C14.8875 10.5844 15.2118 10.45 15.55 10.45Z" fill="#163440"/>
</svg>
