<svg width="22" height="26" viewBox="0 0 22 26" fill="none" xmlns="http://www.w3.org/2000/svg">
<path d="M2.0359 20.2199H2.15122L7.49454 19.7446C8.07986 19.6877 8.62731 19.4359 9.045 19.0316L20.5773 7.77384C21.0249 7.31223 21.2668 6.69624 21.25 6.06083C21.2332 5.42543 20.959 4.82244 20.4876 4.38401L16.9767 0.956649C16.5184 0.53648 15.918 0.295392 15.2895 0.279248C14.6611 0.263103 14.0485 0.473028 13.5682 0.869089L2.0359 12.1268C1.62172 12.5346 1.36383 13.069 1.30552 13.6404L0.754531 18.8565C0.73727 19.0397 0.761623 19.2244 0.825854 19.3973C0.890085 19.5703 0.992612 19.7273 1.12613 19.8572C1.24586 19.9731 1.38786 20.0648 1.54397 20.1271C1.70009 20.1893 1.86726 20.2209 2.0359 20.2199ZM13.9605 3.94441C14.6449 3.2592 15.7532 3.25219 16.4462 3.92868L17.3814 4.84161C18.0982 5.5414 18.0909 6.69644 17.3653 7.3871C16.6764 8.04278 15.5922 8.03592 14.9116 7.37158L13.9764 6.45865C13.2721 5.77113 13.265 4.64079 13.9605 3.94441ZM3.70996 14.7332C3.7625 14.1652 4.01653 13.6348 4.42612 13.2378L9.31455 8.49967C10.2559 7.58726 11.7525 7.58992 12.6906 8.50568C13.6637 9.45561 13.6637 11.0205 12.6906 11.9704L7.91941 16.628C7.51195 17.0257 6.97996 17.2711 6.41289 17.3227L6.30564 17.3325C4.8181 17.468 3.57237 16.2206 3.70996 14.7332Z" fill="#163440"/>
<path d="M19.9696 23.2199H2.03039C1.69055 23.2199 1.36463 23.3517 1.12433 23.5863C0.884025 23.8209 0.749023 24.139 0.749023 24.4708C0.749023 24.8025 0.884025 25.1207 1.12433 25.3553C1.36463 25.5898 1.69055 25.7216 2.03039 25.7216H19.9696C20.3094 25.7216 20.6353 25.5898 20.8756 25.3553C21.1159 25.1207 21.2509 24.8025 21.2509 24.4708C21.2509 24.139 21.1159 23.8209 20.8756 23.5863C20.6353 23.3517 20.3094 23.2199 19.9696 23.2199Z" fill="#163440"/>
</svg>
