<svg width="110" height="99" viewBox="0 0 110 99" fill="none" xmlns="http://www.w3.org/2000/svg">
<path d="M14.7948 1.5345C13.7638 0.53874 12.383 -0.0122482 10.9497 0.000206647C9.51638 0.0126615 8.14533 0.587563 7.1318 1.60109C6.11828 2.61461 5.54337 3.98567 5.53092 5.41896C5.51846 6.85225 6.06945 8.23308 7.06521 9.26407L20.3159 22.5148C12.4989 28.3967 5.67673 36.4761 0.576525 46.6875C0.19738 47.4462 0 48.2828 0 49.131C0 49.9792 0.19738 50.8157 0.576525 51.5745C12.3731 75.1732 33.3206 87.3962 54.6617 87.3962C63.162 87.3962 71.6077 85.4556 79.4247 81.6291L94.5285 96.7274C95.5595 97.7232 96.9404 98.2742 98.3737 98.2617C99.807 98.2493 101.178 97.6743 102.192 96.6608C103.205 95.6473 103.78 94.2762 103.792 92.8429C103.805 91.4097 103.254 90.0288 102.258 88.9978L14.7948 1.5345ZM71.1376 73.3364C65.7804 75.4301 60.2047 76.4633 54.6617 76.4633C38.4318 76.4633 21.852 67.6076 11.6406 49.131C16.1067 41.0461 21.7973 34.8088 28.1384 30.3427L39.8585 42.0628C38.3939 45.1238 37.915 48.5637 38.4876 51.9083C39.0602 55.2529 40.6563 58.3375 43.0557 60.737C45.4551 63.1364 48.5397 64.7324 51.8843 65.305C55.229 65.8777 58.6688 65.3987 61.7298 63.9341L71.1321 73.3364H71.1376ZM90.4779 59.4954C93.1182 56.456 95.5399 53.0067 97.6827 49.131C87.4714 30.6543 70.8971 21.7987 54.6617 21.7987C54.0494 21.7987 53.4372 21.8096 52.8249 21.8369L43.0673 12.0848C46.879 11.275 50.7649 10.8664 54.6617 10.8657C75.9973 10.8657 96.9502 23.0888 108.747 46.6875C109.126 47.4462 109.323 48.2828 109.323 49.131C109.323 49.9792 109.126 50.8157 108.747 51.5745C105.945 57.236 102.407 62.5021 98.2239 67.2359L90.4779 59.4954Z" fill="#163440"/>
</svg>
