<svg width="110" height="77" viewBox="0 0 110 77" fill="none" xmlns="http://www.w3.org/2000/svg">
<path d="M71.061 38.2652C71.061 42.6146 69.3332 46.7859 66.2577 49.8613C63.1822 52.9368 59.011 54.6646 54.6616 54.6646C50.3122 54.6646 46.141 52.9368 43.0655 49.8613C39.99 46.7859 38.2622 42.6146 38.2622 38.2652C38.2622 33.9158 39.99 29.7446 43.0655 26.6691C46.141 23.5936 50.3122 21.8658 54.6616 21.8658C59.011 21.8658 63.1822 23.5936 66.2577 26.6691C69.3332 29.7446 71.061 33.9158 71.061 38.2652Z" fill="#163440"/>
<path d="M108.747 35.8217C96.9502 12.223 76.0027 0 54.6617 0C33.3261 0 12.3731 12.223 0.576525 35.8217C0.19738 36.5804 0 37.417 0 38.2652C0 39.1134 0.19738 39.95 0.576525 40.7087C12.3731 64.3074 33.3206 76.5304 54.6617 76.5304C75.9973 76.5304 96.9502 64.3074 108.747 40.7087C109.126 39.95 109.323 39.1134 109.323 38.2652C109.323 37.417 109.126 36.5804 108.747 35.8217ZM54.6617 65.5975C38.4318 65.5975 21.852 56.7418 11.6406 38.2652C21.852 19.7886 38.4263 10.9329 54.6617 10.9329C70.8916 10.9329 87.4714 19.7886 97.6827 38.2652C87.4714 56.7418 70.8916 65.5975 54.6617 65.5975Z" fill="#163440"/>
</svg>
